<svg aria-hidden="true" style="position: absolute; width: 0; height: 0; overflow: hidden;" version="1.1" xmlns="http://www.w3.org/2000/svg" xmlns:xlink="http://www.w3.org/1999/xlink">
<defs>
<symbol id="icon-list" viewBox="0 0 32 32">
<path d="M0 0h8v8h-8zM12 2h20v4h-20zM0 12h8v8h-8zM12 14h20v4h-20zM0 24h8v8h-8zM12 26h20v4h-20z"></path>
</symbol>
<symbol id="icon-pencil" viewBox="0 0 32 32">
<path d="M12 20l4-2 14-14-2-2-14 14-2 4zM9.041 27.097c-0.989-2.085-2.052-3.149-4.137-4.137l3.097-8.525 4-2.435 12-12h-6l-12 12-6 20 20-6 12-12v-6l-12 12-2.435 4z"></path>
</symbol>
<symbol id="icon-checkmark" viewBox="0 0 32 32">
<path d="M27 4l-15 15-7-7-5 5 12 12 20-20z"></path>
</symbol>
<symbol id="icon-plus" viewBox="0 0 32 32">
<path d="M31 12h-11v-11c0-0.552-0.448-1-1-1h-6c-0.552 0-1 0.448-1 1v11h-11c-0.552 0-1 0.448-1 1v6c0 0.552 0.448 1 1 1h11v11c0 0.552 0.448 1 1 1h6c0.552 0 1-0.448 1-1v-11h11c0.552 0 1-0.448 1-1v-6c0-0.552-0.448-1-1-1z"></path>
</symbol>
<symbol id="icon-arrow-down2" viewBox="0 0 32 32">
<path d="M27.414 19.414l-10 10c-0.781 0.781-2.047 0.781-2.828 0l-10-10c-0.781-0.781-0.781-2.047 0-2.828s2.047-0.781 2.828 0l6.586 6.586v-19.172c0-1.105 0.895-2 2-2s2 0.895 2 2v19.172l6.586-6.586c0.39-0.39 0.902-0.586 1.414-0.586s1.024 0.195 1.414 0.586c0.781 0.781 0.781 2.047 0 2.828z"></path>
</symbol>
<symbol id="icon-bin" viewBox="0 0 32 32">
<path d="M4 10v20c0 1.1 0.9 2 2 2h18c1.1 0 2-0.9 2-2v-20h-22zM10 28h-2v-14h2v14zM14 28h-2v-14h2v14zM18 28h-2v-14h2v14zM22 28h-2v-14h2v14z"></path>
<path d="M26.5 4h-6.5v-2.5c0-0.825-0.675-1.5-1.5-1.5h-7c-0.825 0-1.5 0.675-1.5 1.5v2.5h-6.5c-0.825 0-1.5 0.675-1.5 1.5v2.5h26v-2.5c0-0.825-0.675-1.5-1.5-1.5zM18 4h-6v-1.975h6v1.975z"></path>
</symbol>
<symbol id="icon-editing" viewBox="0 0 32 32">
<path d="M24.897 19.533c-0.239-0.096-0.449-0.054-0.628 0.126l-1.148 1.148c-0.108 0.107-0.162 0.239-0.162 0.394v2.26c0 0.789-0.28 1.465-0.842 2.027s-1.238 0.843-2.027 0.843h-14.924c-0.789 0-1.465-0.281-2.027-0.843s-0.843-1.238-0.843-2.027v-14.924c0-0.789 0.281-1.465 0.843-2.027s1.238-0.843 2.027-0.843h14.924c0.263 0 0.532 0.036 0.807 0.108 0.216 0.072 0.407 0.024 0.574-0.144l0.879-0.879c0.144-0.143 0.197-0.317 0.161-0.52-0.036-0.191-0.144-0.329-0.323-0.412-0.646-0.299-1.345-0.449-2.099-0.449h-14.924c-1.423 0-2.64 0.505-3.65 1.516s-1.516 2.227-1.516 3.65v14.924c0 1.423 0.505 2.64 1.516 3.65s2.227 1.516 3.65 1.516h14.924c1.423 0 2.64-0.505 3.65-1.516s1.516-2.227 1.516-3.65v-3.408c-0-0.252-0.12-0.425-0.359-0.521z"></path>
<path d="M11.48 18.87v5.166h5.166l12.054-12.054-5.166-5.166-12.054 12.054zM15.928 22.314v0l-1.005-0v-1.721h-1.722v-1.004l2.081-2.081 2.726 2.727-2.081 2.080zM23.803 9.991l-6.278 6.278c-0.203 0.204-0.401 0.209-0.592 0.018s-0.185-0.389 0.018-0.592l6.278-6.278c0.203-0.204 0.4-0.209 0.592-0.018s0.185 0.389-0.018 0.592z"></path>
<path d="M31.498 6.744l-2.726-2.726c-0.335-0.335-0.741-0.502-1.22-0.502s-0.885 0.167-1.22 0.502l-1.65 1.65 5.166 5.166 1.65-1.65c0.335-0.335 0.502-0.741 0.502-1.22s-0.167-0.885-0.502-1.22z"></path>
</symbol>
</defs>
</svg>
